<svg xmlns="http://www.w3.org/2000/svg" viewBox="0 0 290 92.56"><title>uamshealth-sprite</title><path d="M68.28,48.54c0,8,.21,15.33-5.63,21.74-5,5.43-12.66,7.87-20,8.08H35.46c-7.26-.21-15-2.53-19.91-8-5.91-6.33-5.7-13.77-5.7-21.73V19.13c0-4.89.78-12.93-4.85-15V3.77H26v.34c-5.53,2.11-4.85,10.15-4.85,15.11V48.66c0,14.77,6.18,21.52,17.55,21.52a19.56,19.56,0,0,0,16.11-7.72c2.43-3.31,2.32-6.06,2.32-10V19.13c0-5,.63-13-4.87-15.1V3.77h21l.12.34c-5.65,2.11-5,10.15-5,15.21Z" transform="translate(-5 -2)" fill="#fff"/><path d="M101.21,13.16,87.44,49,81.7,64.59C79.38,70.77,78.62,74,83.81,76v.34H63.6v-.21c6.33-3.21,8.27-9.37,10.69-15.68l18.42-46c1.56-3.92,3.65-8.6-1.65-10.25V3.77h17.45l22.93,56.6C134,66.7,136,72.84,142.26,76v.34H119.65v-.29c5.4-2.43,4.51-3.65,1.54-11.37l-6-15.61-14-35.86Z" transform="translate(-5 -2)" fill="#fff"/><path d="M206.15,10.69a19.33,19.33,0,0,0,1.65-6.81V3.77h19v.34c-2.66.78-3.42,4-3.42,6.52l7.35,54.17C231.36,70,231.93,73,236.34,76v.34H215.07v-.29c3.87-1.23,4.52-4.54,4.52-8.27L213.26,14.7,188.52,77.81c-5.53-4.21-7.07-7.17-9.73-13.35l-20.86-49.8L151.6,62.1c-.88,6.73-1.66,11.58,3.53,13.9v.34h-18v-.25c4.65-4.08,5.3-9.5,6.19-15.45l6.32-46.23c.4-3.1,1.63-7.49-3.35-10.26V3.77h19.3v.11a13,13,0,0,0,1.54,5l20.76,48.66Z" transform="translate(-5 -2)" fill="#fff"/><path d="M280.17,17A25,25,0,0,0,262.87,10c-6.32,0-14.23,2.42-14.23,10,0,15.12,38,14.89,38,35.31,0,11.81-12.34,22.84-29.53,22.84a57,57,0,0,1-19.74-3.31l-3.25-13.77a38.26,38.26,0,0,0,24.07,9.13c6.33,0,15.78-3.75,15.78-11.48,0-17.21-38-14.13-38-37.52C236,7.3,250.2,2,263.65,2a54.07,54.07,0,0,1,16.42,2.37V17Z" transform="translate(-5 -2)" fill="#fff"/><path d="M101.38,63.6a9.24,9.24,0,1,0-9.24-9.24A9.24,9.24,0,0,0,101.38,63.6Z" transform="translate(-5 -2)" fill="#fff"/><path d="M9.91,88.32V81.8h1.76v6.5c0,1.71.82,2.59,2.11,2.59s2.1-.86,2.1-2.53V81.8h1.78v6.46a3.72,3.72,0,0,1-3.14,4.21h0a4.82,4.82,0,0,1-.76,0,3.71,3.71,0,0,1-3.84-3.54h0A4.15,4.15,0,0,1,9.91,88.32Z" transform="translate(-5 -2)" fill="#fff"/><path d="M19.53,84.27h1.71v1.18a2.48,2.48,0,0,1,2.11-1.33c1.54,0,2.45,1.08,2.45,2.79v5.33H24.15V87.39c0-1.12-.52-1.73-1.43-1.73s-1.5.66-1.5,1.75v4.83H19.53Z" transform="translate(-5 -2)" fill="#fff"/><path d="M27.74,81.55h1.81v1.66H27.74Zm0,2.82h1.71v8H27.74Z" transform="translate(-5 -2)" fill="#fff"/><path d="M30.84,84.27h1.79l1.8,5.8,1.79-5.8H38l-2.78,8H33.58Z" transform="translate(-5 -2)" fill="#fff"/><path d="M38.58,88.49v-.13a3.7,3.7,0,0,1,3.21-4.09H42c2.11,0,3.31,1.81,3.31,4.22v.59h-5a2.11,2.11,0,0,0,2.11,2.11,2.61,2.61,0,0,0,1.83-.85l.89,1.06a3.73,3.73,0,0,1-6.33-2.89Zm5-.61c0-1.27-.65-2.11-1.64-2.11s-1.61.82-1.71,2.11Z" transform="translate(-5 -2)" fill="#fff"/><path d="M47,84.27h1.7v1.56a2.36,2.36,0,0,1,2.39-1.69V86h0c-1.39,0-2.32.91-2.32,2.72v3.52H47Z" transform="translate(-5 -2)" fill="#fff"/><path d="M51.81,91.38l.8-1.23a3.72,3.72,0,0,0,2.11.93c.69,0,1.12-.38,1.12-.86h0c0-.57-.62-.82-1.56-1.23s-2.11-1-2.11-2.36h0a2.38,2.38,0,0,1,2.38-2.38h.25a4.5,4.5,0,0,1,2.6.86l-.72,1.25a3.45,3.45,0,0,0-1.9-.7c-.63,0-1,.34-1,.78h0c0,.53.63.8,1.56,1.23s2.11,1.11,2.11,2.38h0A2.43,2.43,0,0,1,55,92.48h-.31A4.89,4.89,0,0,1,51.81,91.38Z" transform="translate(-5 -2)" fill="#fff"/><path d="M59,81.55h1.82v1.66H59Zm0,2.82h1.71v8H59Z" transform="translate(-5 -2)" fill="#fff"/><path d="M63.09,90.41V85.83h-.86V84.27h.86V82.16H64.8v2.11h1.9v1.46H64.8v4.21a.79.79,0,0,0,.63.87h.24a2.18,2.18,0,0,0,.9-.23V92a3.44,3.44,0,0,1-1.41.34,1.82,1.82,0,0,1-2.1-1.48s0,0,0-.06A2.2,2.2,0,0,1,63.09,90.41Z" transform="translate(-5 -2)" fill="#fff"/><path d="M73,84.27h1.75l-2.7,8.18c-.55,1.61-1.18,2.11-2.36,2.11a3.51,3.51,0,0,1-1.61-.42l.51-1.31a2.25,2.25,0,0,0,.91.28c.44,0,.71-.19,1-.85l-2.87-8h1.81l1.86,5.78Z" transform="translate(-5 -2)" fill="#fff"/><path d="M77.84,88.49v-.13a3.69,3.69,0,0,1,7.34-.8,5.34,5.34,0,0,1,0,.8v.13a3.69,3.69,0,0,1-7.34.78A5.08,5.08,0,0,1,77.84,88.49Zm5.63,0h0c0-1.48-.82-2.6-2-2.6s-2,1.1-2,2.6h0c0,1.5.82,2.61,2,2.61s2-1.2,2-2.61Z" transform="translate(-5 -2)" fill="#fff"/><path d="M87,85.83h-.88V84.52H87v-.61a2.49,2.49,0,0,1,.6-1.81,2.08,2.08,0,0,1,1.66-.57,3.23,3.23,0,0,1,1.2.17v1.43a2.81,2.81,0,0,0-.82-.13c-.61,0-1,.34-1,1.1v.42h1.75v1.42H88.72v6.51H87Z" transform="translate(-5 -2)" fill="#fff"/><path d="M97.48,81.74h1.68L103,92.29h-1.83l-.87-2.49H96.23l-.86,2.49H93.59ZM99.8,88.3l-1.5-4.22L96.8,88.3Z" transform="translate(-5 -2)" fill="#fff"/><path d="M104.39,84.27h1.71v1.56a2.36,2.36,0,0,1,2.39-1.69V86h0c-1.4,0-2.32.91-2.32,2.72v3.52h-1.71Z" transform="translate(-5 -2)" fill="#fff"/><path d="M109.77,81.49h1.71v6.32l2.7-3.54h2.11l-2.63,3.25,2.72,4.72h-2l-1.92-3.5-.9,1.12v2.3h-1.71Z" transform="translate(-5 -2)" fill="#fff"/><path d="M117,90.05h0c0-1.71,1.14-2.55,2.83-2.55a4.8,4.8,0,0,1,1.83.31v-.33a1.5,1.5,0,0,0-1.33-1.65H120a4,4,0,0,0-1.92.49L117.56,85a5.33,5.33,0,0,1,2.61-.72,2.78,2.78,0,0,1,3.14,2.37h0a4.33,4.33,0,0,1,0,.72v5h-1.67v-1a2.58,2.58,0,0,1-2.11,1.12A2.34,2.34,0,0,1,117,90.37Zm4.68-.4v-.8a3.13,3.13,0,0,0-1.47-.3c-1,0-1.54.49-1.54,1.33h0a1.25,1.25,0,0,0,1.18,1.27h0a1.64,1.64,0,0,0,1.71-1.5h.12Z" transform="translate(-5 -2)" fill="#fff"/><path d="M125.24,84.27h1.7v1.18a2.48,2.48,0,0,1,2.11-1.33c1.54,0,2.45,1.08,2.45,2.79v5.33H130V87.39c0-1.12-.53-1.73-1.43-1.73s-1.5.66-1.5,1.75v4.83h-1.71Z" transform="translate(-5 -2)" fill="#fff"/><path d="M132.83,91.38l.8-1.23a3.72,3.72,0,0,0,2.11.93c.7,0,1.12-.38,1.12-.86h0c0-.57-.61-.82-1.56-1.23s-2.11-1-2.11-2.36h0a2.39,2.39,0,0,1,2.38-2.38h.21a4.5,4.5,0,0,1,2.6.86l-.7,1.25a3.45,3.45,0,0,0-1.9-.7c-.63,0-1,.34-1,.78h0c0,.53.63.8,1.56,1.23s2.11,1.11,2.11,2.38h0a2.42,2.42,0,0,1-2.43,2.4h-.23A4.89,4.89,0,0,1,132.83,91.38Z" transform="translate(-5 -2)" fill="#fff"/><path d="M139.64,90.05h0c0-1.71,1.14-2.55,2.83-2.55a4.73,4.73,0,0,1,1.83.31v-.33A1.5,1.5,0,0,0,143,85.83h-.33a4,4,0,0,0-1.92.49L140.23,85a5.54,5.54,0,0,1,2.64-.64A2.79,2.79,0,0,1,146,86.71v0a4.21,4.21,0,0,1,0,.71v4.94h-1.75v-1a2.54,2.54,0,0,1-2.11,1.12,2.31,2.31,0,0,1-2.46-2.11A1.65,1.65,0,0,1,139.64,90.05Zm4.58-.4v-.8a3.44,3.44,0,0,0-1.48-.3c-1,0-1.54.49-1.54,1.33h0a1.26,1.26,0,0,0,1.19,1.27h.1a1.61,1.61,0,0,0,1.73-1.47h0Z" transform="translate(-5 -2)" fill="#fff"/><path d="M147.19,91.38l.81-1.23a3.66,3.66,0,0,0,2.11.93c.69,0,1.11-.38,1.11-.86h0c0-.57-.61-.82-1.56-1.23s-2.11-1-2.11-2.36h0a2.39,2.39,0,0,1,2.39-2.38h.25a4.47,4.47,0,0,1,2.59.86l-.71,1.25a3.45,3.45,0,0,0-1.9-.7c-.63,0-1,.34-1,.78h0c0,.53.63.8,1.56,1.23s2.11,1.11,2.11,2.38h0a2.44,2.44,0,0,1-2.41,2.43h-.31A4.94,4.94,0,0,1,147.19,91.38Z" transform="translate(-5 -2)" fill="#fff"/><path d="M157.4,85.83h-.88V84.52h.88v-.61A2.53,2.53,0,0,1,158,82.1a2.11,2.11,0,0,1,1.67-.57,3.23,3.23,0,0,1,1.2.17v1.43A2.81,2.81,0,0,0,160,83c-.61,0-.95.34-.95,1.1v.42h1.75v1.42h-1.79v6.51h-1.71Z" transform="translate(-5 -2)" fill="#fff"/><path d="M161.62,88.49v-.13a3.69,3.69,0,1,1,7.34-.8,5.34,5.34,0,0,1,0,.8v.13a3.69,3.69,0,0,1-7.34.78A5.08,5.08,0,0,1,161.62,88.49Zm5.63,0h0c0-1.48-.82-2.6-2-2.6s-2,1.1-2,2.6h0c0,1.5.82,2.61,2,2.61s1.86-1.2,1.86-2.61Z" transform="translate(-5 -2)" fill="#fff"/><path d="M170.46,84.27h1.71v1.56a2.34,2.34,0,0,1,2.38-1.69V86h0c-1.39,0-2.32.91-2.32,2.72v3.52h-1.71Z" transform="translate(-5 -2)" fill="#fff"/><path d="M178.65,81.8h1.81l2.7,4.83,2.7-4.83h1.83V92.35H186V84.88l-2.79,4.87h0l-2.78-4.83v7.41h-1.71Z" transform="translate(-5 -2)" fill="#fff"/><path d="M189,88.49v-.13a3.7,3.7,0,0,1,3.21-4.09h.19c2.11,0,3.31,1.81,3.31,4.22v.59h-5a2.12,2.12,0,0,0,2.11,2.11,2.65,2.65,0,0,0,1.84-.85l.88,1.06a3.7,3.7,0,0,1-5.21,0,3.64,3.64,0,0,1-1.11-2.89Zm5.05-.61c0-1.27-.66-2.11-1.65-2.11s-1.6.82-1.71,2.11Z" transform="translate(-5 -2)" fill="#fff"/><path d="M197.12,88.49V88.3c0-2.7,1.5-4,3.1-4a2.7,2.7,0,0,1,2.33,1.35V81.49h1.7V92.35h-1.7V91.06a2.81,2.81,0,0,1-2.33,1.44C198.62,92.48,197.12,91.15,197.12,88.49Zm5.47,0v-.21c0-1.56-.87-2.55-1.9-2.55s-1.86,1-1.86,2.57v.19c0,1.6.83,2.57,1.86,2.57s1.88-1.07,1.88-2.57Z" transform="translate(-5 -2)" fill="#fff"/><path d="M206.22,81.55H208v1.66h-1.79Zm0,2.82H208v8h-1.71Z" transform="translate(-5 -2)" fill="#fff"/><path d="M209.61,88.49v-.15A3.76,3.76,0,0,1,213,84.27h.24a3.25,3.25,0,0,1,2.55,1.08l-.95,1.24a2.07,2.07,0,0,0-1.6-.8c-1.12,0-1.92,1.07-1.92,2.57h0c0,1.54.8,2.6,2,2.6a2.3,2.3,0,0,0,1.63-.81l.9,1.12a3.38,3.38,0,0,1-2.63,1.21,3.72,3.72,0,0,1-3.61-3.74A.53.53,0,0,0,209.61,88.49Z" transform="translate(-5 -2)" fill="#fff"/><path d="M216.85,90.05h0c0-1.71,1.14-2.55,2.82-2.55a4.82,4.82,0,0,1,1.84.31v-.33a1.5,1.5,0,0,0-1.34-1.65h-.37a4,4,0,0,0-1.92.49L217.4,85a5.47,5.47,0,0,1,2.63-.64,2.79,2.79,0,0,1,3.14,2.38v0a2.81,2.81,0,0,1,0,.71v4.94h-1.66v-1a2.56,2.56,0,0,1-2.11,1.12,2.34,2.34,0,0,1-2.55-2.11A1.21,1.21,0,0,1,216.85,90.05Zm4.68-.4v-.8a3.28,3.28,0,0,0-1.37-.36c-1,0-1.54.48-1.54,1.33h0a1.24,1.24,0,0,0,1.18,1.26h0A1.62,1.62,0,0,0,221.53,89.65Z" transform="translate(-5 -2)" fill="#fff"/><path d="M225.14,81.49h1.71V92.35h-1.71Z" transform="translate(-5 -2)" fill="#fff"/><path d="M230.87,91l1.06-1.31a4.22,4.22,0,0,0,2.76,1.24c1,0,1.65-.55,1.65-1.33h0c0-.65-.34-1.09-2.11-1.7s-3-1.5-3-3.17h0a3,3,0,0,1,3.1-3h.23a4.83,4.83,0,0,1,3.32,1.22L237,84.25a3.6,3.6,0,0,0-2.36-1c-.95,0-1.54.52-1.54,1.22h0c0,.74.4,1.12,2.11,1.81s2.85,1.57,2.85,3.11h0a3.06,3.06,0,0,1-3.08,3h-.34A5.64,5.64,0,0,1,230.87,91Z" transform="translate(-5 -2)" fill="#fff"/><path d="M239.33,88.49v-.15a3.76,3.76,0,0,1,3.41-4.07H243a3.25,3.25,0,0,1,2.55,1.08l-.95,1.24a2.07,2.07,0,0,0-1.6-.8c-1.12,0-1.92,1.07-1.92,2.57h0c0,1.54.82,2.6,2,2.6a2.3,2.3,0,0,0,1.63-.81l.93,1.12a3.42,3.42,0,0,1-2.64,1.21,3.72,3.72,0,0,1-3.61-3.8A.41.41,0,0,0,239.33,88.49Z" transform="translate(-5 -2)" fill="#fff"/><path d="M246.86,81.55h1.82v1.66h-1.82Zm0,2.82h1.71v8h-1.71Z" transform="translate(-5 -2)" fill="#fff"/><path d="M250.22,88.49v-.13a3.68,3.68,0,0,1,3.2-4.09h.19c2.11,0,3.32,1.81,3.32,4.22v.59h-5A2.11,2.11,0,0,0,254,91.19a2.63,2.63,0,0,0,1.83-.85l.89,1.06a3.7,3.7,0,0,1-5.21,0,3.62,3.62,0,0,1-1.12-2.89Zm5-.61c0-1.27-.65-2.11-1.65-2.11s-1.6.82-1.71,2.11Z" transform="translate(-5 -2)" fill="#fff"/><path d="M258.53,84.27h1.71v1.18a2.45,2.45,0,0,1,2.11-1.33c1.54,0,2.44,1.08,2.44,2.79v5.33h-1.71V87.39c0-1.12-.52-1.73-1.43-1.73s-1.5.66-1.5,1.75v4.83h-1.71Z" transform="translate(-5 -2)" fill="#fff"/><path d="M266.35,88.49v-.15a3.76,3.76,0,0,1,3.41-4.07H270a3.28,3.28,0,0,1,2.56,1.08l-.95,1.24a2.11,2.11,0,0,0-1.61-.8c-1.11,0-1.92,1.07-1.92,2.57h0c0,1.54.83,2.6,2,2.6a2.3,2.3,0,0,0,1.62-.81l.93,1.12A3.39,3.39,0,0,1,270,92.48a3.72,3.72,0,0,1-3.63-3.74A.53.53,0,0,0,266.35,88.49Z" transform="translate(-5 -2)" fill="#fff"/><path d="M273.42,88.49v-.13a3.7,3.7,0,0,1,3.21-4.09h.19c2.11,0,3.31,1.81,3.31,4.22v.59H275a2.12,2.12,0,0,0,2.11,2.11,2.65,2.65,0,0,0,1.84-.85l.88,1.06a3.7,3.7,0,0,1-5.21,0,3.64,3.64,0,0,1-1.11-2.89Zm5-.61c0-1.27-.65-2.11-1.64-2.11s-1.61.82-1.71,2.11Z" transform="translate(-5 -2)" fill="#fff"/><path d="M281,91.38l.8-1.23a3.69,3.69,0,0,0,2.11.93c.69,0,1.11-.38,1.11-.86h0c0-.57-.61-.82-1.56-1.23s-2.11-1-2.11-2.36h0a2.39,2.39,0,0,1,2.43-2.34H284a4.44,4.44,0,0,1,2.6.87l-.72,1.24a3.45,3.45,0,0,0-1.9-.7c-.63,0-1,.34-1,.78h0c0,.53.63.81,1.56,1.23s2.11,1.12,2.11,2.38h0a2.43,2.43,0,0,1-2.41,2.43H284A4.9,4.9,0,0,1,281,91.38Z" transform="translate(-5 -2)" fill="#fff"/><path d="M292,71.61c0-1.22-.93-1.79-2.11-1.79h-2.56v5.42h1.33V73.53h.85l1.16,1.71h1.58l-1.37-1.94A1.7,1.7,0,0,0,292,71.61Zm-2.28.85h-1.14V71h1.16c.57,0,.93.27.93.76s-.36.78-.93.78Z" transform="translate(-5 -2)" fill="#fff"/><path d="M289.45,67.12A5.55,5.55,0,1,0,295,72.67a5.55,5.55,0,0,0-5.55-5.55ZM294,72.65h0a4.62,4.62,0,0,1-9.24,0h0a4.62,4.62,0,1,1,9.24,0Z" transform="translate(-5 -2)" fill="#fff"/></svg>